<svg width="92" height="76" viewBox="0 0 92 76" fill="none" xmlns="http://www.w3.org/2000/svg">
<g clip-path="url(#clip0_53_11)">
<path d="M36.2619 12.1364V14.3061M36.2619 55.5431V57.7139M57.9889 36.01H55.8162M14.5349 36.01H12.3612M35.175 44.6911C34.3406 44.6911 33.5062 44.3743 32.8718 43.7385L18.8793 29.7619L23.4878 25.1591L35.175 36.8332L64.3743 7.66414L68.985 12.267L37.4804 43.7374C37.1777 44.0402 36.8182 44.2802 36.4226 44.4437C36.027 44.6071 35.603 44.6919 35.175 44.6911ZM59.9444 12.1321C53.7911 5.46335 44.972 1.28442 35.174 1.28442C16.5761 1.28442 1.49768 16.3463 1.49768 34.9246C1.49768 53.5028 16.5761 68.5658 35.175 68.5658C53.774 68.5658 68.8524 53.5028 68.8524 34.9246C68.8524 28.4828 67.0402 22.4649 63.8994 17.3515L59.9444 12.1321ZM55.307 16.7156C52.7612 13.9026 49.654 11.6552 46.1861 10.1188C42.7181 8.58234 38.9666 7.79097 35.174 7.7958C20.1737 7.7958 8.0147 19.9408 8.0147 34.9246C8.0147 49.9094 20.1737 62.0545 35.174 62.0545C50.1742 62.0545 62.3332 49.9094 62.3332 34.9246C62.3332 30.2907 61.1704 25.9309 59.1218 22.1159L55.307 16.7156Z" stroke="#62E0D9" stroke-width="1.3" stroke-linecap="round" stroke-linejoin="round"/>
<path fill-rule="evenodd" clip-rule="evenodd" d="M59.2309 43.335C59.2309 45.9897 57.0753 48.1412 54.4191 48.1412C53.1442 48.1421 51.9212 47.6362 51.0191 46.7349C50.1169 45.8336 49.6095 44.6106 49.6083 43.335C49.6083 40.6804 51.7639 38.5288 54.4191 38.5288C55.0504 38.5282 55.6757 38.6521 56.2592 38.8933C56.8427 39.1346 57.373 39.4884 57.8198 39.9347C58.2666 40.381 58.6212 40.911 58.8633 41.4944C59.1054 42.0779 59.2303 42.7033 59.2309 43.335Z" stroke="#62E0D9" stroke-width="1.3" stroke-linejoin="round"/>
<path fill-rule="evenodd" clip-rule="evenodd" d="M54.4191 48.1412C52.3887 48.1412 50.5551 48.7653 49.2425 49.3765C48.6294 49.6679 48.1119 50.128 47.7506 50.7029C47.3893 51.2779 47.1992 51.9439 47.2024 52.6231V60.1556C47.2033 60.7935 47.4572 61.4048 47.9083 61.8555C48.3594 62.3061 48.9709 62.559 49.6083 62.5587V72.17C49.6086 72.4859 49.6711 72.7986 49.7921 73.0903C49.9132 73.382 50.0905 73.647 50.3139 73.8702C50.5373 74.0933 50.8025 74.2703 51.0942 74.3909C51.3859 74.5115 51.6986 74.5734 52.0142 74.5732H56.825C57.1407 74.5734 57.4533 74.5115 57.745 74.3909C58.0368 74.2703 58.3019 74.0933 58.5253 73.8702C58.7487 73.647 58.926 73.382 59.0471 73.0903C59.1682 72.7986 59.2306 72.4859 59.2309 72.17V62.5577C59.868 62.5577 60.479 62.3047 60.9299 61.8544C61.3807 61.404 61.6346 60.7931 61.6357 60.1556V52.622C61.639 51.9428 61.4488 51.2768 61.0876 50.7018C60.7263 50.1269 60.2088 49.6668 59.5957 49.3754C58.2842 48.7653 56.4506 48.1412 54.4191 48.1412Z" stroke="#62E0D9" stroke-width="1.3" stroke-linecap="round" stroke-linejoin="round"/>
<path fill-rule="evenodd" clip-rule="evenodd" d="M73.6642 43.335C73.6642 45.9897 71.5097 48.1412 68.8524 48.1412C68.2211 48.1418 67.5959 48.0179 67.0124 47.7766C66.429 47.5354 65.8988 47.1815 65.4521 46.7352C65.0053 46.2889 64.6508 45.7589 64.4088 45.1755C64.1668 44.5921 64.042 43.9667 64.0416 43.335C64.0416 40.6804 66.1961 38.5288 68.8524 38.5288C69.4837 38.5282 70.1089 38.6521 70.6923 38.8934C71.2757 39.1346 71.806 39.4885 72.2527 39.9348C72.6994 40.3811 73.0539 40.9111 73.2959 41.4945C73.5379 42.0779 73.6638 42.7033 73.6642 43.335Z" stroke="#62E0D9" stroke-width="1.3" stroke-linejoin="round"/>
<path fill-rule="evenodd" clip-rule="evenodd" d="M68.8524 48.1412C66.822 48.1412 64.9884 48.7653 63.6758 49.3765C63.0627 49.6679 62.5452 50.128 62.1839 50.7029C61.8226 51.2779 61.6325 51.9439 61.6357 52.6231V60.1556C61.636 60.4715 61.6985 60.7842 61.8195 61.0759C61.9406 61.3676 62.1179 61.6326 62.3413 61.8558C62.5647 62.0789 62.8298 62.2558 63.1216 62.3765C63.4133 62.4971 63.726 62.559 64.0416 62.5587V72.17C64.0425 72.8079 64.2964 73.4193 64.7475 73.8699C65.1986 74.3205 65.8101 74.5734 66.4475 74.5732H71.2583C71.8956 74.5734 72.507 74.3205 72.9579 73.8698C73.4089 73.4192 73.6626 72.8078 73.6631 72.17V62.5577C73.9788 62.5581 74.2914 62.4963 74.5832 62.3758C74.875 62.2553 75.1403 62.0785 75.3638 61.8555C75.5873 61.6324 75.7647 61.3675 75.8859 61.0758C76.0071 60.7842 76.0697 60.4715 76.0701 60.1556V52.622C76.0733 51.9427 75.8829 51.2766 75.5215 50.7016C75.16 50.1267 74.6423 49.6666 74.029 49.3754C72.7174 48.7653 70.8828 48.1412 68.8524 48.1412Z" stroke="#62E0D9" stroke-width="1.3" stroke-linecap="round" stroke-linejoin="round"/>
<path fill-rule="evenodd" clip-rule="evenodd" d="M88.0964 43.335C88.0964 45.9897 85.943 48.1412 83.2857 48.1412C82.6544 48.1418 82.0292 48.0179 81.4457 47.7766C80.8623 47.5354 80.3321 47.1815 79.8853 46.7352C79.4386 46.2889 79.0841 45.7589 78.8421 45.1755C78.6001 44.5921 78.4753 43.9667 78.4749 43.335C78.4749 40.6804 80.6284 38.5288 83.2857 38.5288C83.9169 38.5282 84.5421 38.6521 85.1256 38.8934C85.709 39.1346 86.2392 39.4885 86.686 39.9348C87.1327 40.3811 87.4872 40.9111 87.7292 41.4945C87.9712 42.0779 88.096 42.7033 88.0964 43.335Z" stroke="#62E0D9" stroke-width="1.3" stroke-linejoin="round"/>
<path fill-rule="evenodd" clip-rule="evenodd" d="M83.2857 48.1412C81.2552 48.1412 79.4217 48.7653 78.1091 49.3765C77.4959 49.6679 76.9785 50.128 76.6172 50.7029C76.2559 51.2779 76.0658 51.9439 76.069 52.6231V60.1556C76.0693 60.4715 76.1317 60.7842 76.2528 61.0759C76.3739 61.3676 76.5512 61.6326 76.7746 61.8558C76.998 62.0789 77.2631 62.2558 77.5549 62.3765C77.8466 62.4971 78.1593 62.559 78.4749 62.5587V72.17C78.4758 72.8077 78.7295 73.4189 79.1804 73.8695C79.6313 74.3201 80.2425 74.5732 80.8798 74.5732H85.6916C86.3289 74.5734 86.9403 74.3205 87.3912 73.8698C87.8422 73.4192 88.0958 72.8078 88.0964 72.17V62.5577C88.7337 62.5582 89.3452 62.3055 89.7964 61.8551C90.2475 61.4046 90.5015 60.7934 90.5023 60.1556V52.622C90.5056 51.9428 90.3154 51.2768 89.9541 50.7018C89.5929 50.1269 89.0754 49.6668 88.4623 49.3754C87.1507 48.7653 85.3161 48.1412 83.2857 48.1412Z" stroke="#62E0D9" stroke-width="1.3" stroke-linecap="round" stroke-linejoin="round"/>
</g>
<defs>
<clipPath id="clip0_53_11">
<rect width="92" height="76" fill="white"/>
</clipPath>
</defs>
</svg>
