<svg width="108" height="76" viewBox="0 0 108 76" fill="none" xmlns="http://www.w3.org/2000/svg">
<path d="M101.577 70.0625C104.469 70.0625 106.813 67.8585 106.813 65.1379V10.9678C106.813 9.15563 105.249 7.6855 103.323 7.6855L101.577 70.0625ZM101.577 70.0625H26.0149C21.4789 70.0625 17.8022 66.3908 17.8022 61.8628V14.307C17.8034 13.4363 18.1502 12.6017 18.7662 11.9867C19.3822 11.3716 20.2171 11.0265 21.0873 11.0271H67.081L73.6512 1.1875H93.3642C94.2344 1.18687 95.0693 1.532 95.6853 2.14703C96.3013 2.76205 96.648 3.59665 96.6493 4.46738V65.1427C96.6499 65.7895 96.7779 66.4298 97.0259 67.0272C97.2739 67.6245 97.637 68.167 98.0946 68.6239C98.5522 69.0808 99.0953 69.443 99.6928 69.6898C100.29 69.9366 100.931 70.0633 101.577 70.0625Z" stroke="#62E0D9" stroke-width="1.405" stroke-linecap="round" stroke-linejoin="round"/>
<path fill-rule="evenodd" clip-rule="evenodd" d="M48.9917 32.7287V36.5299C48.9917 37.7898 49.9898 38.8099 51.2229 38.8099H54.9376M57.9106 38.8099V38.5498C57.9106 37.7435 57.5972 36.9704 57.0394 36.3993L51.3499 30.5781C51.0763 30.297 50.7493 30.0734 50.3882 29.9204C50.027 29.7675 49.639 29.6883 49.2468 29.6875H32.6433C30.9996 29.6875 29.6703 31.0496 29.6703 32.7287V64.6606C29.6703 66.3397 31.0008 67.7006 32.6433 67.7006H54.9376C56.579 67.7006 57.9106 66.3397 57.9106 64.6606V54.017" fill="#62E0D9"/>
<path d="M58.6535 48.6946L44.5328 63.1393H40.0739V58.5793V58.5782L54.1946 44.1334M58.6535 48.6946L54.1946 44.1334M58.6535 48.6946L60.2296 47.082C60.6487 46.6497 60.8831 46.0711 60.8831 45.4688C60.8831 44.8665 60.6487 44.2878 60.2296 43.8555L58.9241 42.5208C58.7194 42.3094 58.4743 42.1414 58.2035 42.0267C57.9326 41.9119 57.6415 41.8528 57.3474 41.8528C57.0533 41.8528 56.7621 41.9119 56.4913 42.0267C56.2204 42.1414 55.9754 42.3094 55.7707 42.5208L54.1946 44.1334" stroke="white" stroke-width="0.803" stroke-linejoin="round"/>
<path d="M35.6162 44.8936H50.4787M35.6151 49.4547H48.9928M35.6151 54.0171H44.5328" stroke="white" stroke-width="0.803" stroke-linecap="round" stroke-linejoin="round"/>
<path fill-rule="evenodd" clip-rule="evenodd" d="M38.4136 70.5755C38.4136 72.9172 36.5028 74.8173 34.1458 74.8173H4.26778C1.91196 74.8173 0 72.9172 0 70.5755V49.3667C0 47.025 1.91077 45.125 4.26778 45.125H34.1458C36.5016 45.125 38.4136 47.025 38.4136 49.3667V70.5755ZM12.8045 52.9031C12.8011 53.8437 12.4244 54.7443 11.7574 55.407C11.0904 56.0698 10.1876 56.4403 9.24765 56.4371C8.30766 56.4403 7.40489 56.0698 6.73788 55.407C6.07087 54.7443 5.69423 53.8437 5.69077 52.9031C5.69232 52.4373 5.78556 51.9764 5.96515 51.5466C6.14475 51.1169 6.40718 50.7267 6.73746 50.3984C7.06775 50.0702 7.45943 49.8102 7.89012 49.6334C8.32082 49.4566 8.78211 49.3664 9.24765 49.3679C9.71319 49.3664 10.1745 49.4566 10.6052 49.6334C11.0359 49.8102 11.4275 50.0702 11.7578 50.3984C12.0881 50.7267 12.3506 51.1169 12.5301 51.5466C12.7097 51.9764 12.803 52.4373 12.8045 52.9031Z" fill="#62E0D9"/>
<path d="M31.79 69.6541L23.4241 60.8001L19.9384 64.4896L15.0583 59.3252L5.29791 69.6541" stroke="white" stroke-width="0.65" stroke-linecap="round" stroke-linejoin="round"/>
</svg>
