<svg width="60" height="76" viewBox="0 0 60 76" fill="none" xmlns="http://www.w3.org/2000/svg">
<g clip-path="url(#clip0_53_38)">
<path fill-rule="evenodd" clip-rule="evenodd" d="M37.4597 30.6598L26.9769 41.4328L19.2635 33.5072L15.4072 37.4704L26.976 49.3593L44.64 31.2091L40.7829 27.2458L37.4597 30.6598Z" stroke="#62E0D9" stroke-width="3.064"/>
<path fill-rule="evenodd" clip-rule="evenodd" d="M48.7851 8.50674C44.2063 8.50674 39.654 7.52565 35.5148 5.49783C33.5323 4.53661 31.5043 3.31024 29.7514 1.78247C27.9986 3.31024 25.9706 4.53661 23.9871 5.49783C19.8489 7.52565 15.2974 8.50674 10.7177 8.50674H1.64056V43.5617C1.64056 49.7022 4.05514 55.6052 8.34942 59.8784C14.6546 66.1398 29.7523 74.2787 29.7523 74.2787C29.7523 74.2787 44.8483 66.1398 51.1534 59.8784C55.4477 55.6052 57.8623 49.7013 57.8623 43.5617V8.50674H48.7851Z" stroke="#62E0D9" stroke-width="3.064"/>
<path fill-rule="evenodd" clip-rule="evenodd" d="M50.52 21.1867V43.8562C50.52 47.9516 48.8889 51.9226 46.0466 54.751C42.0934 58.678 33.0806 64.0524 29.7523 65.9783C26.4214 64.0498 17.4008 58.6693 13.452 54.7476C10.6114 51.9217 8.98285 47.9516 8.98285 43.8562V16.346H10.7177C16.4666 16.346 22.1468 15.0514 27.1466 12.6038C28.0327 12.1745 28.9019 11.7107 29.7523 11.2134C30.5854 11.7013 31.4666 12.172 32.3786 12.6151C37.362 15.0557 43.0363 16.346 48.7851 16.346H50.52V21.1867Z" stroke="#62E0D9" stroke-width="3.064"/>
</g>
<defs>
<clipPath id="clip0_53_38">
<rect width="60" height="76" fill="white"/>
</clipPath>
</defs>
</svg>
