<svg width="81" height="76" viewBox="0 0 81 76" fill="none" xmlns="http://www.w3.org/2000/svg">
<g clip-path="url(#clip0_53_27)">
<path fill-rule="evenodd" clip-rule="evenodd" d="M2.41635 52.0951H71.8197V44.3168H2.41635V52.0951ZM50.4669 63.765H54.3149V67.2036H19.9211V63.765H23.7681C24.4083 63.765 24.9246 63.2496 24.9246 62.6124V54.4015H49.3105V62.6124C49.3105 63.2496 49.8277 63.765 50.4669 63.765ZM2.41635 42.0105H71.8197V2.87443H2.41635V42.0105ZM1.25892 0.570068C0.619707 0.570068 0.102478 1.0855 0.102478 1.72274V53.2488C0.102478 53.887 0.619707 54.4024 1.25892 54.4024H22.6117V61.4597H18.7637C18.1245 61.4597 17.6073 61.9781 17.6073 62.6134V68.3572C17.6073 68.9925 18.1245 69.5108 18.7637 69.5108H55.4723C56.1106 69.5108 56.6288 68.9925 56.6288 68.3572V62.6124C56.6288 61.9771 56.1106 61.4587 55.4723 61.4587H51.6234V54.4015H72.9761C73.6153 54.4015 74.1335 53.885 74.1335 53.2478V1.72468C74.1335 1.08648 73.6153 0.571043 72.9771 0.571043H1.25892V0.570068Z" fill="#62E0D9"/>
<path fill-rule="evenodd" clip-rule="evenodd" d="M35.5346 46.6914C34.8964 46.6914 34.3782 47.2078 34.3782 47.845C34.3782 48.1513 34.5 48.445 34.7169 48.6615C34.9338 48.878 35.2279 48.9997 35.5346 48.9997C35.8413 48.9997 36.1355 48.878 36.3523 48.6615C36.5692 48.445 36.6911 48.1513 36.6911 47.845C36.6911 47.2088 36.1729 46.6914 35.5346 46.6914Z" fill="#62E0D9"/>
<path d="M77.4448 23.2786H57.2465C55.9195 23.2786 54.8438 24.3526 54.8438 25.6774V72.321C54.8438 73.6458 55.9195 74.7198 57.2465 74.7198H77.4448C78.7717 74.7198 79.8474 73.6458 79.8474 72.321V25.6774C79.8474 24.3526 78.7717 23.2786 77.4448 23.2786Z" fill="#181F2B" stroke="#62E0D9" stroke-width="1.641"/>
<path fill-rule="evenodd" clip-rule="evenodd" d="M54.754 28.9541H79.9353V29.9285H54.754V28.9541ZM54.754 65.8521H79.9353V66.8265H54.754V65.8521Z" fill="white" stroke="#62E0D9" stroke-width="1.458"/>
<path d="M66.7664 70.9062C67.4051 70.9062 67.9229 70.3901 67.9229 69.7535C67.9229 69.1169 67.4051 68.6008 66.7664 68.6008C66.1277 68.6008 65.61 69.1169 65.61 69.7535C65.61 70.3901 66.1277 70.9062 66.7664 70.9062Z" stroke="#62E0D9" stroke-width="1.01"/>
<path fill-rule="evenodd" clip-rule="evenodd" d="M44.3061 15.5596H44.1138L39.0049 17.5765L33.2208 15.5596L27.823 17.3855C27.6298 17.481 27.4376 17.5775 27.4376 17.8659V32.3741C27.4376 32.6635 27.6298 32.8554 27.9197 32.8554H28.1119L33.2208 30.8375L39.0049 32.8544L44.4027 31.0295C44.5959 30.933 44.7882 30.7411 44.7882 30.5491V16.0399C44.7882 15.7515 44.5959 15.5596 44.3061 15.5596ZM39.0049 29.9713L33.2208 28.0255V17.0006L39.0049 18.9464V29.9713Z" fill="#62E0D9"/>
<path fill-rule="evenodd" clip-rule="evenodd" d="M29.7505 15.5596C28.4623 15.5596 27.4376 16.4531 27.4376 17.5765C27.4376 19.077 29.7505 21.3249 29.7505 21.3249C29.7505 21.3249 32.0643 19.076 32.0643 17.5775C32.0643 16.4531 31.0386 15.5596 29.7505 15.5596ZM29.7505 18.4417C29.2527 18.4417 28.8614 18.09 28.8614 17.6418C28.8614 17.1936 29.2518 16.8409 29.7505 16.8409C30.2491 16.8409 30.6405 17.1926 30.6405 17.6418C30.6405 18.09 30.2491 18.4417 29.7505 18.4417Z" fill="white"/>
</g>
<defs>
<clipPath id="clip0_53_27">
<rect width="81" height="76" fill="white"/>
</clipPath>
</defs>
</svg>
